<svg width="169" height="169" viewBox="0 0 169 169" fill="none" xmlns="http://www.w3.org/2000/svg">
<g clip-path="url(#clip0_1_172)">
<path d="M86.0118 110.32C101.161 110.32 113.442 98.0386 113.442 82.8892C113.442 67.7398 101.161 55.4588 86.0118 55.4588C70.8624 55.4588 58.5814 67.7398 58.5814 82.8892C58.5814 98.0386 70.8624 110.32 86.0118 110.32Z" fill="#E3ACB4"/>
<path d="M63.3076 116.462L69.0257 101.849L98.5689 97.4017L101.743 129.749L71.8822 130.384L63.3076 116.462Z" fill="#E3ACB4"/>
<path d="M113.708 87.9503C113.352 89.3765 112.632 92.7724 111.508 92.7892C110.59 92.8025 109.711 78.0701 110.629 75.6332C111.682 72.8337 108.914 69.2923 106.828 67.4744C103.078 64.2058 94.7544 71.2244 86.2903 68.0449C86.066 67.9608 86.1107 67.9703 83.4379 66.904C75.2135 63.6225 74.7812 63.5278 74.31 63.481C70.3231 63.0866 65.4575 66.3491 63.4707 70.3269C61.4053 74.4618 63.131 78.0085 61.1887 88.0121C60.9624 89.1782 60.6069 90.8401 60.0477 90.8646C59.0254 90.9091 58.0272 85.4488 57.7658 84.0187C56.6705 78.0269 55.6144 72.2501 57.7658 65.763C58.0005 65.0554 59.4467 62.4292 62.3297 57.2056C66.483 49.6806 68.572 45.9039 69.1756 45.2253C73.505 40.3566 81.3854 35.9152 88.0018 37.8089C91.3459 38.766 90.7463 40.3048 94.8477 41.8023C102.157 44.4709 108.509 41.2073 109.68 43.5138C110.301 44.7356 108.565 45.7428 108.539 48.0777C108.496 52.084 113.563 53.2417 116.526 57.2056C118.119 59.3366 120.846 59.3594 113.708 87.9503Z" fill="#2F2E41"/>
<path d="M147.691 140.604C146.585 141.846 145.439 143.062 144.25 144.251C128.291 160.21 107.07 169 84.5 169C64.992 169 46.4941 162.434 31.5287 150.347C31.5191 150.34 31.5128 150.334 31.5033 150.324C29.5179 148.723 27.596 147.021 25.7408 145.223C25.7757 144.943 25.8138 144.667 25.8551 144.393C26.1156 142.551 26.4047 140.794 26.7287 139.177C29.3812 125.924 64.2836 112.01 65.1921 111.648C65.2048 111.645 65.2111 111.642 65.2111 111.642C65.2111 111.642 69.703 128.199 88.9506 127.986C102.061 127.843 99.5194 111.642 99.5194 111.642C99.5194 111.642 99.6783 111.673 99.9768 111.737C103.763 112.541 130.054 118.316 140.426 126.197C143.586 128.599 145.855 133.714 147.484 139.813C147.554 140.073 147.621 140.34 147.691 140.604Z" fill="#6C63FF"/>
<path d="M144.25 24.7497C128.291 8.79019 107.07 0 84.5 0C61.9296 0 40.7094 8.79019 24.7496 24.7497C8.78996 40.7094 0 61.9297 0 84.5C0 105.101 7.32229 124.577 20.7406 139.956C22.0208 141.426 23.3582 142.859 24.7496 144.251C25.0768 144.578 25.4072 144.905 25.7407 145.223C27.596 147.021 29.5179 148.723 31.5033 150.324C31.5128 150.334 31.5191 150.34 31.5287 150.347C46.4941 162.434 64.992 169 84.5 169C107.07 169 128.291 160.21 144.25 144.251C145.439 143.063 146.585 141.846 147.691 140.604C161.468 125.127 169 105.393 169 84.5C169 61.9297 160.21 40.7094 144.25 24.7497ZM147.484 139.813C144.984 142.656 142.297 145.331 139.438 147.812C134.015 152.529 127.979 156.557 121.47 159.766C119.186 160.893 116.845 161.919 114.45 162.837C105.145 166.408 95.0466 168.365 84.5 168.365C74.3219 168.365 64.5631 166.541 55.5318 163.206C51.8245 161.84 48.2413 160.217 44.8009 158.358C44.2958 158.085 43.7939 157.809 43.2951 157.526C40.6712 156.039 38.133 154.416 35.6965 152.662C32.2053 150.159 28.9143 147.392 25.8551 144.393C24.1397 142.713 22.5005 140.963 20.9344 139.143C8.28802 124.453 0.635338 105.355 0.635338 84.5C0.635338 38.2571 38.2569 0.635338 84.5 0.635338C130.743 0.635338 168.365 38.2571 168.365 84.5C168.365 105.676 160.477 125.041 147.484 139.813Z" fill="#3F3D56"/>
</g>
<defs>
<clipPath id="clip0_1_172">
<rect width="169" height="169" fill="white"/>
</clipPath>
</defs>
</svg>
