<svg width="236" height="111" viewBox="0 0 236 111" fill="none" xmlns="http://www.w3.org/2000/svg">
<path d="M17.875 102.219C17.6302 102.219 17.4115 102.19 17.2188 102.133C17.0312 102.081 16.862 102.005 16.7109 101.906C16.5599 101.807 16.4245 101.693 16.3047 101.562C16.1901 101.427 16.0885 101.284 16 101.133C15.8854 101.294 15.7682 101.443 15.6484 101.578C15.5286 101.714 15.3854 101.831 15.2188 101.93C15.0573 102.023 14.862 102.096 14.6328 102.148C14.4036 102.201 14.125 102.227 13.7969 102.227C13.5 102.227 13.2396 102.198 13.0156 102.141C12.7917 102.083 12.6042 102.018 12.4531 101.945C12.4844 102.57 12.4219 103.138 12.2656 103.648C12.1146 104.164 11.8932 104.622 11.6016 105.023C11.3099 105.424 10.9583 105.773 10.5469 106.07C10.1406 106.372 9.70052 106.62 9.22656 106.812C8.7526 107.005 8.25521 107.148 7.73438 107.242C7.21875 107.341 6.70312 107.391 6.1875 107.391C5.42188 107.391 4.71615 107.263 4.07031 107.008C3.42448 106.758 2.86458 106.404 2.39062 105.945C1.92188 105.492 1.55469 104.945 1.28906 104.305C1.02344 103.669 0.890625 102.964 0.890625 102.188C0.90625 101.734 0.963542 101.276 1.0625 100.812C1.16667 100.344 1.29688 99.8906 1.45312 99.4531C1.61458 99.0156 1.79167 98.6016 1.98438 98.2109C2.18229 97.8203 2.38281 97.4714 2.58594 97.1641L4.20312 98.3594C4.02083 98.651 3.84375 98.9531 3.67188 99.2656C3.50521 99.5781 3.35417 99.8984 3.21875 100.227C3.08854 100.549 2.98438 100.88 2.90625 101.219C2.82812 101.557 2.78906 101.898 2.78906 102.242C2.77344 102.674 2.84375 103.078 3 103.453C3.16146 103.833 3.39062 104.164 3.6875 104.445C3.98438 104.732 4.34115 104.956 4.75781 105.117C5.17969 105.284 5.64583 105.367 6.15625 105.367C6.71875 105.367 7.22656 105.315 7.67969 105.211C8.13281 105.107 8.53125 104.958 8.875 104.766C9.21875 104.573 9.5026 104.344 9.72656 104.078C9.95573 103.818 10.125 103.526 10.2344 103.203C10.3802 102.719 10.4453 102.247 10.4297 101.789C10.4193 101.331 10.3542 100.872 10.2344 100.414C10.1146 99.9505 9.95573 99.4818 9.75781 99.0078C9.5651 98.5339 9.35938 98.0391 9.14062 97.5234L10.8984 96.4453C10.9714 96.6328 11.0573 96.862 11.1562 97.1328C11.2552 97.4036 11.3672 97.6849 11.4922 97.9766C11.6172 98.2682 11.7578 98.5573 11.9141 98.8438C12.0703 99.1302 12.2396 99.3802 12.4219 99.5938C12.6042 99.8073 12.8021 99.974 13.0156 100.094C13.2344 100.208 13.4661 100.242 13.7109 100.195C13.9714 100.19 14.1771 100.125 14.3281 100C14.4844 99.875 14.6042 99.7135 14.6875 99.5156C14.7708 99.3125 14.8229 99.0833 14.8438 98.8281C14.8698 98.5677 14.8828 98.2995 14.8828 98.0234L14.8438 96.7031L16.7578 96.5078L16.7812 96.8672L16.8047 97.4297C16.8099 97.5495 16.8229 97.7031 16.8438 97.8906C16.8646 98.0781 16.8958 98.276 16.9375 98.4844C16.9792 98.6927 17.0312 98.9036 17.0938 99.1172C17.1562 99.3307 17.2344 99.5234 17.3281 99.6953C17.4219 99.862 17.5286 100 17.6484 100.109C17.7734 100.214 17.9167 100.266 18.0781 100.266C18.3073 100.266 18.487 100.177 18.6172 100C18.7526 99.8229 18.8516 99.5964 18.9141 99.3203C18.9818 99.0391 19.0234 98.7318 19.0391 98.3984C19.0599 98.0599 19.0703 97.7344 19.0703 97.4219C19.0703 97.3229 19.0677 97.2448 19.0625 97.1875C19.0625 97.125 19.0625 97.0677 19.0625 97.0156C19.0625 96.9635 19.0599 96.9062 19.0547 96.8438C19.0547 96.776 19.0547 96.6849 19.0547 96.5703L21.0312 96.4141C21.0469 96.5859 21.0625 96.7552 21.0781 96.9219C21.0938 97.0833 21.1094 97.2526 21.125 97.4297C21.1406 97.6016 21.1589 97.7865 21.1797 97.9844C21.2057 98.1771 21.2344 98.388 21.2656 98.6172C21.3021 98.888 21.3802 99.125 21.5 99.3281C21.6198 99.5312 21.7604 99.7005 21.9219 99.8359C22.0885 99.9661 22.263 100.065 22.4453 100.133C22.6276 100.201 22.7995 100.234 22.9609 100.234H23.0547C23.2109 100.234 23.3542 100.26 23.4844 100.312C23.6146 100.365 23.7266 100.438 23.8203 100.531C23.9141 100.62 23.987 100.727 24.0391 100.852C24.0911 100.971 24.1172 101.102 24.1172 101.242C24.1172 101.383 24.0911 101.513 24.0391 101.633C23.987 101.753 23.9141 101.859 23.8203 101.953C23.7266 102.042 23.612 102.112 23.4766 102.164C23.3464 102.216 23.2005 102.242 23.0391 102.242C22.4297 102.242 21.9036 102.138 21.4609 101.93C21.0234 101.716 20.6562 101.372 20.3594 100.898C20.1094 101.31 19.7734 101.633 19.3516 101.867C18.9349 102.102 18.4427 102.219 17.875 102.219ZM21.9922 101.234C21.9922 101.094 22.0182 100.964 22.0703 100.844C22.1224 100.719 22.1927 100.612 22.2812 100.523C22.3698 100.435 22.4766 100.365 22.6016 100.312C22.7214 100.26 22.8516 100.234 22.9922 100.234H23.5859C23.9922 100.234 24.3802 100.216 24.75 100.18C25.125 100.143 25.4557 100.068 25.7422 99.9531C26.0286 99.8333 26.2604 99.6667 26.4375 99.4531C26.6146 99.2344 26.7109 98.9479 26.7266 98.5938C26.7318 98.4531 26.7266 98.3151 26.7109 98.1797C26.6953 98.0443 26.6693 97.901 26.6328 97.75C26.6016 97.5938 26.5599 97.4245 26.5078 97.2422C26.4557 97.0599 26.3958 96.849 26.3281 96.6094L28.2422 96.0703C28.3099 96.3203 28.3646 96.5495 28.4062 96.7578C28.4479 96.9609 28.4818 97.1589 28.5078 97.3516C28.5339 97.5391 28.5547 97.7318 28.5703 97.9297C28.5911 98.1276 28.612 98.3464 28.6328 98.5859C28.6484 98.7682 28.6719 98.9557 28.7031 99.1484C28.7344 99.3411 28.7865 99.5182 28.8594 99.6797C28.9375 99.8411 29.0417 99.974 29.1719 100.078C29.3073 100.182 29.4844 100.234 29.7031 100.234C29.8438 100.234 29.974 100.26 30.0938 100.312C30.2188 100.365 30.3255 100.435 30.4141 100.523C30.5078 100.612 30.5807 100.719 30.6328 100.844C30.6849 100.964 30.7109 101.094 30.7109 101.234C30.7109 101.375 30.6823 101.508 30.625 101.633C30.5729 101.753 30.5 101.857 30.4062 101.945C30.3177 102.034 30.2109 102.104 30.0859 102.156C29.9661 102.208 29.8411 102.234 29.7109 102.234C29.1953 102.234 28.763 102.151 28.4141 101.984C28.0651 101.818 27.7708 101.602 27.5312 101.336C27.3125 101.503 27.0521 101.643 26.75 101.758C26.4479 101.872 26.1224 101.964 25.7734 102.031C25.4297 102.104 25.0703 102.156 24.6953 102.188C24.3203 102.219 23.9505 102.234 23.5859 102.234H22.9922C22.8516 102.234 22.7214 102.208 22.6016 102.156C22.4766 102.104 22.3698 102.034 22.2812 101.945C22.1927 101.857 22.1224 101.753 22.0703 101.633C22.0182 101.508 21.9922 101.375 21.9922 101.234ZM24.3516 106.289L23.0078 104.953L24.3359 103.617L25.6797 104.961L24.3516 106.289ZM27.3047 106.305L25.9609 104.961L27.2891 103.633L28.6328 104.969L27.3047 106.305ZM31.6172 93.5938L30.2734 92.2578L31.6016 90.9219L32.9453 92.2656L31.6172 93.5938ZM34.5703 93.6094L33.2266 92.2656L34.5547 90.9375L35.8984 92.2734L34.5703 93.6094ZM28.4844 101.234C28.4844 101.094 28.5104 100.964 28.5625 100.844C28.6146 100.719 28.6875 100.612 28.7812 100.523C28.8698 100.435 28.974 100.365 29.0938 100.312C29.2135 100.26 29.3438 100.234 29.4844 100.234H30.3516H30.7266C30.9818 100.234 31.2526 100.227 31.5391 100.211C31.8255 100.19 32.099 100.154 32.3594 100.102C32.625 100.044 32.8646 99.9688 33.0781 99.875C33.2917 99.776 33.4505 99.651 33.5547 99.5C33.638 99.3802 33.6797 99.2266 33.6797 99.0391C33.6797 98.8464 33.651 98.6354 33.5938 98.4062C33.5417 98.1771 33.4688 97.9375 33.375 97.6875C33.2865 97.4375 33.1901 97.1927 33.0859 96.9531C32.9818 96.7135 32.8776 96.4896 32.7734 96.2812C32.6745 96.0729 32.5911 95.8932 32.5234 95.7422L34.3438 94.8438C34.4844 95.0938 34.6224 95.3958 34.7578 95.75C34.8984 96.099 35.0208 96.4609 35.125 96.8359C35.2292 97.2109 35.3125 97.5807 35.375 97.9453C35.4427 98.3099 35.4766 98.6328 35.4766 98.9141C35.4766 99.4193 35.3906 99.8698 35.2188 100.266C35.0208 100.724 34.7422 101.102 34.3828 101.398C34.0286 101.69 33.6016 101.909 33.1016 102.055C32.9505 102.096 32.7604 102.128 32.5312 102.148C32.3073 102.174 32.0781 102.193 31.8438 102.203C31.6094 102.219 31.3854 102.227 31.1719 102.227C30.9635 102.232 30.8021 102.234 30.6875 102.234H29.5547H29.4844C29.3438 102.234 29.2135 102.208 29.0938 102.156C28.974 102.104 28.8698 102.034 28.7812 101.945C28.6875 101.857 28.6146 101.753 28.5625 101.633C28.5104 101.508 28.4844 101.375 28.4844 101.234ZM37.5312 102.219C37.5573 101.792 37.5807 101.359 37.6016 100.922C37.6224 100.484 37.6406 100.055 37.6562 99.6328C37.6719 99.2109 37.6823 98.7995 37.6875 98.3984C37.6979 97.9974 37.7031 97.6198 37.7031 97.2656C37.7031 96.5312 37.6953 95.8776 37.6797 95.3047C37.6641 94.7266 37.6406 94.2135 37.6094 93.7656C37.5833 93.3125 37.5521 92.9167 37.5156 92.5781C37.4844 92.2344 37.4505 91.9323 37.4141 91.6719C37.3776 91.4062 37.3438 91.1745 37.3125 90.9766C37.2812 90.7786 37.2526 90.5964 37.2266 90.4297L39.2344 89.75C39.2448 89.7812 39.2526 89.8151 39.2578 89.8516C39.2682 89.8828 39.2786 89.9323 39.2891 90C39.3047 90.0677 39.3177 90.1615 39.3281 90.2812C39.3438 90.401 39.362 90.5651 39.3828 90.7734C39.4089 90.9766 39.4349 91.2344 39.4609 91.5469C39.4922 91.8542 39.5286 92.2318 39.5703 92.6797C39.5964 93.112 39.6172 93.513 39.6328 93.8828C39.6536 94.2526 39.6693 94.6172 39.6797 94.9766C39.6901 95.3307 39.6979 95.6953 39.7031 96.0703C39.7083 96.4401 39.7109 96.8438 39.7109 97.2812C39.7109 97.9948 39.7031 98.7266 39.6875 99.4766C39.6719 100.227 39.6354 101.039 39.5781 101.914L37.5312 102.219ZM41.8594 99.1641C42.0573 99.2891 42.2943 99.4167 42.5703 99.5469C42.8516 99.6771 43.1406 99.7943 43.4375 99.8984C43.7396 100.003 44.0339 100.089 44.3203 100.156C44.612 100.224 44.8672 100.258 45.0859 100.258C45.1745 100.258 45.2839 100.255 45.4141 100.25C45.5443 100.245 45.6823 100.234 45.8281 100.219C45.974 100.198 46.1198 100.169 46.2656 100.133C46.4115 100.091 46.5417 100.036 46.6562 99.9688C46.776 99.8958 46.8724 99.8073 46.9453 99.7031C47.0182 99.5938 47.0573 99.4609 47.0625 99.3047C47.0677 99.0911 47.0104 98.8516 46.8906 98.5859C46.7708 98.3151 46.6094 98.0365 46.4062 97.75C46.2031 97.4583 45.9688 97.1667 45.7031 96.875C45.4375 96.5833 45.1615 96.3047 44.875 96.0391C44.5885 95.7682 44.2995 95.5208 44.0078 95.2969C43.7214 95.0677 43.4531 94.875 43.2031 94.7188L44.3672 92.9922C44.8464 93.3203 45.3177 93.6901 45.7812 94.1016C46.25 94.513 46.6797 94.9531 47.0703 95.4219C47.4661 95.8854 47.8073 96.3698 48.0938 96.875C48.3854 97.3802 48.5938 97.8906 48.7188 98.4062C48.8542 98.9844 48.8568 99.5182 48.7266 100.008C48.5964 100.497 48.362 100.919 48.0234 101.273C47.6849 101.622 47.2552 101.891 46.7344 102.078C46.2135 102.266 45.6302 102.344 44.9844 102.312C44.6406 102.312 44.2917 102.279 43.9375 102.211C43.5833 102.148 43.2344 102.06 42.8906 101.945C42.5521 101.831 42.224 101.701 41.9062 101.555C41.5938 101.404 41.3021 101.245 41.0312 101.078L41.8594 99.1641ZM66.5 95.2734C66.7344 95.2214 66.9714 95.1901 67.2109 95.1797C67.4557 95.1641 67.6979 95.1719 67.9375 95.2031C68.1771 95.2344 68.4115 95.2865 68.6406 95.3594C68.875 95.4323 69.099 95.526 69.3125 95.6406L68.6016 97.5156C68.3307 97.3958 68.0495 97.3151 67.7578 97.2734C67.4661 97.2318 67.1719 97.2396 66.875 97.2969C66.6979 97.3125 66.5078 97.3646 66.3047 97.4531C66.1016 97.5417 65.8984 97.6562 65.6953 97.7969C65.4974 97.9323 65.3047 98.0911 65.1172 98.2734C64.9349 98.4505 64.7734 98.6406 64.6328 98.8438C64.4922 99.0417 64.3776 99.2474 64.2891 99.4609C64.2057 99.6693 64.1641 99.8724 64.1641 100.07C64.1641 100.18 64.1849 100.31 64.2266 100.461L64.2188 100.453C64.2604 100.573 64.3464 100.674 64.4766 100.758C64.6068 100.841 64.7604 100.914 64.9375 100.977C65.1146 101.039 65.3047 101.094 65.5078 101.141C65.7161 101.188 65.9167 101.234 66.1094 101.281C66.4219 101.354 66.7318 101.438 67.0391 101.531C67.3516 101.625 67.6302 101.755 67.875 101.922C68.125 102.083 68.3255 102.297 68.4766 102.562C68.6328 102.828 68.7109 103.167 68.7109 103.578C68.7109 103.766 68.6953 103.953 68.6641 104.141C68.5599 104.693 68.3151 105.193 67.9297 105.641C67.5495 106.094 67.0365 106.484 66.3906 106.812H66.3984C65.8047 107.109 65.138 107.336 64.3984 107.492C63.6589 107.648 62.849 107.727 61.9688 107.727C60.9427 107.727 60.0365 107.578 59.25 107.281C58.4635 106.984 57.8177 106.552 57.3125 105.984C57.0781 105.708 56.8802 105.411 56.7188 105.094C56.5625 104.781 56.4401 104.453 56.3516 104.109C56.2682 103.771 56.2161 103.422 56.1953 103.062C56.1797 102.703 56.1927 102.341 56.2344 101.977C56.276 101.633 56.3333 101.284 56.4062 100.93C56.4792 100.576 56.5573 100.234 56.6406 99.9062C56.724 99.5729 56.8099 99.2578 56.8984 98.9609C56.987 98.6641 57.0677 98.4036 57.1406 98.1797C57.2135 97.9557 57.276 97.7734 57.3281 97.6328C57.3802 97.4922 57.4115 97.4115 57.4219 97.3906L59.1406 98.0859C59.0156 98.4766 58.901 98.8438 58.7969 99.1875C58.6927 99.526 58.599 99.8594 58.5156 100.188C58.4323 100.516 58.3568 100.846 58.2891 101.18C58.2266 101.508 58.1719 101.857 58.125 102.227C58.099 102.424 58.0911 102.628 58.1016 102.836C58.1172 103.049 58.151 103.258 58.2031 103.461C58.2604 103.669 58.3385 103.87 58.4375 104.062C58.5417 104.26 58.6693 104.443 58.8203 104.609C59.1328 104.958 59.5547 105.219 60.0859 105.391C60.6172 105.568 61.2448 105.656 61.9688 105.656C62.6615 105.656 63.3047 105.602 63.8984 105.492C64.4974 105.388 65.0156 105.247 65.4531 105.07C65.8958 104.893 66.2474 104.693 66.5078 104.469C66.7734 104.25 66.9219 104.023 66.9531 103.789C66.9479 103.742 66.8984 103.698 66.8047 103.656C66.7109 103.615 66.5938 103.573 66.4531 103.531C66.3125 103.495 66.1562 103.456 65.9844 103.414C65.8177 103.378 65.6562 103.339 65.5 103.297C65.0625 103.188 64.6562 103.062 64.2812 102.922C63.9062 102.786 63.5807 102.607 63.3047 102.383C63.0286 102.159 62.8125 101.875 62.6562 101.531C62.5 101.188 62.4219 100.755 62.4219 100.234C62.4479 99.6615 62.5677 99.1042 62.7812 98.5625C62.9948 98.0156 63.2812 97.5208 63.6406 97.0781C64.0052 96.6302 64.4297 96.2474 64.9141 95.9297C65.3984 95.612 65.9271 95.3932 66.5 95.2734ZM74.4844 97.0391C74.6667 97.5443 74.8229 98.0469 74.9531 98.5469C75.0104 98.7604 75.0651 98.987 75.1172 99.2266C75.1745 99.4609 75.224 99.6979 75.2656 99.9375C75.3125 100.177 75.349 100.414 75.375 100.648C75.4062 100.878 75.4219 101.094 75.4219 101.297C75.4219 101.766 75.349 102.221 75.2031 102.664C75.0625 103.112 74.8646 103.542 74.6094 103.953C74.3594 104.37 74.0599 104.766 73.7109 105.141C73.3672 105.516 72.9922 105.87 72.5859 106.203C72.1797 106.536 71.75 106.846 71.2969 107.133C70.8438 107.419 70.3854 107.677 69.9219 107.906L69.0312 106.117C69.401 105.935 69.7656 105.732 70.125 105.508C70.4844 105.289 70.8255 105.055 71.1484 104.805C71.4766 104.555 71.7786 104.292 72.0547 104.016C72.3359 103.74 72.5755 103.453 72.7734 103.156C72.9766 102.859 73.1354 102.555 73.25 102.242C73.3646 101.93 73.4219 101.615 73.4219 101.297C73.4219 101 73.388 100.688 73.3203 100.359C73.2526 100.031 73.1693 99.7083 73.0703 99.3906C72.9766 99.0677 72.8776 98.7578 72.7734 98.4609C72.6745 98.1641 72.5911 97.901 72.5234 97.6719L74.4844 97.0391ZM77.3438 102.219C77.3698 101.792 77.3932 101.359 77.4141 100.922C77.4349 100.484 77.4531 100.055 77.4688 99.6328C77.4844 99.2109 77.4948 98.7995 77.5 98.3984C77.5104 97.9974 77.5156 97.6198 77.5156 97.2656C77.5156 96.5312 77.5078 95.8776 77.4922 95.3047C77.4766 94.7266 77.4531 94.2135 77.4219 93.7656C77.3958 93.3125 77.3646 92.9167 77.3281 92.5781C77.2969 92.2344 77.263 91.9323 77.2266 91.6719C77.1901 91.4062 77.1562 91.1745 77.125 90.9766C77.0938 90.7786 77.0651 90.5964 77.0391 90.4297L79.0469 89.75C79.0573 89.7812 79.0651 89.8151 79.0703 89.8516C79.0807 89.8828 79.0911 89.9323 79.1016 90C79.1172 90.0677 79.1302 90.1615 79.1406 90.2812C79.1562 90.401 79.1745 90.5651 79.1953 90.7734C79.2214 90.9766 79.2474 91.2344 79.2734 91.5469C79.3047 91.8542 79.3411 92.2318 79.3828 92.6797C79.4089 93.112 79.4297 93.513 79.4453 93.8828C79.4661 94.2526 79.4818 94.6172 79.4922 94.9766C79.5026 95.3307 79.5104 95.6953 79.5156 96.0703C79.5208 96.4401 79.5234 96.8438 79.5234 97.2812C79.5234 97.9948 79.5156 98.7266 79.5 99.4766C79.4844 100.227 79.4479 101.039 79.3906 101.914L77.3438 102.219ZM84.3047 102.234C83.6536 102.234 83.0391 102.089 82.4609 101.797C81.888 101.505 81.349 101.099 80.8438 100.578L81.9922 98.9609C82.4661 99.3984 82.9089 99.7161 83.3203 99.9141C83.7318 100.107 84.125 100.203 84.5 100.203C84.5885 100.203 84.6875 100.198 84.7969 100.188C84.9062 100.177 85.0156 100.164 85.125 100.148C85.2396 100.133 85.3516 100.112 85.4609 100.086C85.5703 100.06 85.6667 100.031 85.75 100C85.8438 99.9635 85.9401 99.9245 86.0391 99.8828C86.1432 99.8359 86.2396 99.7917 86.3281 99.75C86.4219 99.7083 86.5052 99.6667 86.5781 99.625C86.651 99.5833 86.7109 99.5443 86.7578 99.5078L84.2656 93.4922L86.1172 92.7188C86.2057 92.9479 86.3047 93.1927 86.4141 93.4531C86.5234 93.7135 86.6406 93.9948 86.7656 94.2969C86.9844 94.8177 87.2422 95.4453 87.5391 96.1797C87.8411 96.9141 88.1953 97.7604 88.6016 98.7188L88.7266 99.0234C88.7943 99.2005 88.8646 99.3646 88.9375 99.5156C89.0104 99.6615 89.1016 99.7891 89.2109 99.8984C89.3255 100.003 89.4688 100.086 89.6406 100.148C89.8177 100.206 90.0417 100.234 90.3125 100.234C90.4479 100.234 90.5755 100.26 90.6953 100.312C90.8203 100.365 90.9271 100.435 91.0156 100.523C91.1094 100.612 91.1823 100.719 91.2344 100.844C91.2917 100.964 91.3203 101.094 91.3203 101.234C91.3203 101.375 91.2917 101.508 91.2344 101.633C91.1823 101.753 91.1094 101.857 91.0156 101.945C90.9271 102.034 90.8203 102.104 90.6953 102.156C90.5755 102.208 90.4479 102.234 90.3125 102.234C89.9844 102.234 89.6901 102.208 89.4297 102.156C89.1693 102.109 88.9349 102.044 88.7266 101.961C88.5234 101.872 88.3411 101.771 88.1797 101.656C88.0234 101.536 87.8828 101.409 87.7578 101.273C87.6068 101.378 87.4141 101.484 87.1797 101.594C86.9453 101.698 86.7161 101.794 86.4922 101.883C86.1901 102.003 85.8542 102.091 85.4844 102.148C85.1198 102.206 84.7266 102.234 84.3047 102.234ZM89.2422 101.234C89.2422 101.094 89.2682 100.964 89.3203 100.844C89.3724 100.719 89.4453 100.612 89.5391 100.523C89.6276 100.435 89.7318 100.365 89.8516 100.312C89.9714 100.26 90.1016 100.234 90.2422 100.234H91.0469H91.3984C91.6172 100.234 91.8333 100.227 92.0469 100.211C92.2604 100.19 92.4609 100.151 92.6484 100.094C92.8359 100.036 93 99.9557 93.1406 99.8516C93.2865 99.7474 93.3984 99.612 93.4766 99.4453C93.5339 99.3203 93.5625 99.1484 93.5625 98.9297C93.5625 98.7943 93.5339 98.6042 93.4766 98.3594C93.4193 98.1146 93.3438 97.8438 93.25 97.5469C93.1562 97.25 93.0443 96.9427 92.9141 96.625C92.7891 96.3073 92.6562 96.0104 92.5156 95.7344L94.3203 94.8438C94.4505 95.1406 94.5807 95.4557 94.7109 95.7891C94.8411 96.1224 94.9557 96.4661 95.0547 96.8203C95.1589 97.1693 95.2422 97.5208 95.3047 97.875C95.3672 98.2292 95.3984 98.5755 95.3984 98.9141C95.3984 99.4193 95.3125 99.8698 95.1406 100.266C94.9427 100.724 94.6641 101.102 94.3047 101.398C93.9505 101.69 93.5234 101.909 93.0234 102.055C92.7266 102.138 92.4375 102.188 92.1562 102.203C91.8802 102.224 91.6224 102.234 91.3828 102.234H90.3125H90.2422C90.1016 102.234 89.9714 102.208 89.8516 102.156C89.7318 102.104 89.6276 102.034 89.5391 101.945C89.4453 101.857 89.3724 101.753 89.3203 101.633C89.2682 101.508 89.2422 101.375 89.2422 101.234ZM92.6016 106.422L91.1016 104.922L92.5938 103.43L94.0938 104.93L92.6016 106.422ZM100.984 102.234C100.375 102.234 99.8542 102.159 99.4219 102.008C98.9948 101.862 98.625 101.638 98.3125 101.336C98.125 101.148 97.9792 100.948 97.875 100.734C97.776 100.521 97.7031 100.31 97.6562 100.102C97.6094 99.8932 97.5807 99.6979 97.5703 99.5156C97.5651 99.3281 97.5625 99.1667 97.5625 99.0312C97.5677 98.8646 97.5729 98.5911 97.5781 98.2109C97.5885 97.8255 97.5938 97.3568 97.5938 96.8047C97.5938 96.4766 97.5911 96.1276 97.5859 95.7578C97.5859 95.3828 97.5833 95.0026 97.5781 94.6172C97.5729 94.2318 97.5625 93.8464 97.5469 93.4609C97.5312 93.0703 97.513 92.6953 97.4922 92.3359C97.4714 91.9766 97.4427 91.6406 97.4062 91.3281C97.375 91.0104 97.3359 90.7292 97.2891 90.4844L99.25 89.8984C99.3073 90.2005 99.3568 90.5651 99.3984 90.9922C99.4401 91.4193 99.474 91.875 99.5 92.3594C99.5312 92.8385 99.5521 93.3307 99.5625 93.8359C99.5781 94.3359 99.5859 94.8125 99.5859 95.2656C99.5859 95.5417 99.5885 95.8359 99.5938 96.1484C99.599 96.4557 99.6016 96.7266 99.6016 96.9609C99.6016 97.1589 99.599 97.3464 99.5938 97.5234C99.5938 97.6953 99.5911 97.862 99.5859 98.0234C99.5859 98.1849 99.5833 98.3438 99.5781 98.5C99.5781 98.6562 99.5781 98.8151 99.5781 98.9766C99.5729 99.1745 99.5781 99.362 99.5938 99.5391C99.6094 99.7109 99.6615 99.8385 99.75 99.9219C99.9375 100.115 100.326 100.216 100.914 100.227H100.984C101.12 100.227 101.247 100.255 101.367 100.312C101.492 100.365 101.599 100.438 101.688 100.531C101.781 100.62 101.854 100.727 101.906 100.852C101.964 100.971 101.992 101.099 101.992 101.234C101.992 101.375 101.964 101.508 101.906 101.633C101.854 101.753 101.781 101.857 101.688 101.945C101.599 102.034 101.492 102.104 101.367 102.156C101.247 102.208 101.12 102.234 100.984 102.234ZM99.8906 101.234C99.8906 101.099 99.9193 100.974 99.9766 100.859C100.029 100.74 100.104 100.635 100.203 100.547C100.302 100.458 100.417 100.388 100.547 100.336C100.677 100.279 100.818 100.245 100.969 100.234C101.276 100.234 101.56 100.182 101.82 100.078C102.081 99.9688 102.323 99.776 102.547 99.5C102.776 99.2188 102.987 98.8359 103.18 98.3516C103.372 97.8672 103.555 97.2474 103.727 96.4922L105.641 97.0312C105.578 97.2448 105.516 97.4401 105.453 97.6172C105.396 97.7943 105.344 97.9688 105.297 98.1406C105.25 98.3125 105.211 98.4922 105.18 98.6797C105.154 98.862 105.141 99.0703 105.141 99.3047C105.141 99.4245 105.151 99.5417 105.172 99.6562C105.193 99.7708 105.227 99.8724 105.273 99.9609C105.32 100.049 105.38 100.12 105.453 100.172C105.531 100.224 105.622 100.247 105.727 100.242C105.919 100.237 106.102 100.169 106.273 100.039C106.445 99.9036 106.604 99.7292 106.75 99.5156C106.901 99.3021 107.036 99.0599 107.156 98.7891C107.281 98.513 107.391 98.237 107.484 97.9609C107.583 97.6797 107.667 97.4062 107.734 97.1406C107.802 96.875 107.854 96.6406 107.891 96.4375L109.734 96.8125C109.667 97.125 109.612 97.4141 109.57 97.6797C109.529 97.9401 109.503 98.2031 109.492 98.4688C109.482 98.6667 109.487 98.8698 109.508 99.0781C109.529 99.2865 109.573 99.474 109.641 99.6406C109.708 99.8073 109.802 99.9453 109.922 100.055C110.047 100.159 110.208 100.211 110.406 100.211C110.63 100.211 110.81 100.125 110.945 99.9531C111.086 99.776 111.193 99.5521 111.266 99.2812C111.339 99.0104 111.385 98.7109 111.406 98.3828C111.432 98.0495 111.445 97.7266 111.445 97.4141C111.445 97.3151 111.443 97.237 111.438 97.1797C111.438 97.1172 111.438 97.0599 111.438 97.0078C111.438 96.9557 111.435 96.8984 111.43 96.8359C111.43 96.7682 111.43 96.6771 111.43 96.5625L113.406 96.4062C113.422 96.5781 113.438 96.7474 113.453 96.9141C113.469 97.0755 113.484 97.2448 113.5 97.4219C113.516 97.5938 113.534 97.7786 113.555 97.9766C113.581 98.1693 113.609 98.3802 113.641 98.6094C113.677 98.8802 113.755 99.1172 113.875 99.3203C113.995 99.5234 114.135 99.6927 114.297 99.8281C114.464 99.9635 114.638 100.065 114.82 100.133C115.003 100.201 115.174 100.234 115.336 100.234H115.43C115.586 100.234 115.729 100.26 115.859 100.312C115.99 100.365 116.102 100.435 116.195 100.523C116.289 100.612 116.362 100.719 116.414 100.844C116.466 100.964 116.492 101.094 116.492 101.234C116.492 101.375 116.466 101.505 116.414 101.625C116.362 101.745 116.286 101.852 116.188 101.945C116.089 102.034 115.966 102.104 115.82 102.156C115.68 102.208 115.518 102.234 115.336 102.234C115.081 102.234 114.828 102.208 114.578 102.156C114.333 102.104 114.099 102.023 113.875 101.914C113.651 101.805 113.44 101.667 113.242 101.5C113.049 101.328 112.88 101.125 112.734 100.891C112.682 100.979 112.628 101.06 112.57 101.133C112.513 101.206 112.453 101.276 112.391 101.344C112.135 101.625 111.839 101.844 111.5 102C111.161 102.156 110.797 102.234 110.406 102.234C109.917 102.234 109.471 102.117 109.07 101.883C108.674 101.648 108.359 101.336 108.125 100.945C107.974 101.138 107.81 101.315 107.633 101.477C107.461 101.633 107.273 101.771 107.07 101.891C106.872 102.005 106.661 102.094 106.438 102.156C106.214 102.224 105.979 102.258 105.734 102.258C105.5 102.258 105.273 102.227 105.055 102.164C104.836 102.107 104.633 102.021 104.445 101.906C104.258 101.792 104.089 101.654 103.938 101.492C103.786 101.326 103.661 101.141 103.562 100.938C103.302 101.396 102.964 101.727 102.547 101.93C102.135 102.133 101.612 102.234 100.977 102.234C100.815 102.234 100.669 102.208 100.539 102.156C100.404 102.104 100.289 102.034 100.195 101.945C100.096 101.852 100.021 101.745 99.9688 101.625C99.9167 101.505 99.8906 101.375 99.8906 101.234ZM114.414 101.234C114.414 101.094 114.44 100.964 114.492 100.844C114.544 100.719 114.617 100.612 114.711 100.523C114.805 100.435 114.914 100.365 115.039 100.312C115.159 100.26 115.289 100.234 115.43 100.234H116.977C117.622 100.234 118.279 100.174 118.945 100.055C119.617 99.9297 120.284 99.7682 120.945 99.5703C121.607 99.3672 122.253 99.1354 122.883 98.875C123.513 98.6146 124.109 98.3464 124.672 98.0703C124.224 97.9714 123.807 97.8411 123.422 97.6797C123.036 97.513 122.672 97.3516 122.328 97.1953C121.984 97.0391 121.654 96.9036 121.336 96.7891C121.018 96.6745 120.703 96.6172 120.391 96.6172C120.208 96.6172 120.036 96.651 119.875 96.7188C119.719 96.7812 119.573 96.862 119.438 96.9609C119.302 97.0599 119.18 97.1693 119.07 97.2891C118.966 97.4089 118.872 97.526 118.789 97.6406C118.711 97.75 118.646 97.849 118.594 97.9375C118.542 98.026 118.505 98.0885 118.484 98.125L116.859 97.0703C117.036 96.7578 117.247 96.4557 117.492 96.1641C117.737 95.8672 118.008 95.6042 118.305 95.375C118.607 95.1406 118.932 94.9557 119.281 94.8203C119.63 94.6797 120 94.6094 120.391 94.6094C120.792 94.6094 121.19 94.6641 121.586 94.7734C121.982 94.8776 122.372 95.013 122.758 95.1797C123.148 95.3411 123.539 95.5156 123.93 95.7031C124.32 95.8906 124.714 96.0677 125.109 96.2344C125.51 96.3958 125.914 96.5339 126.32 96.6484C126.727 96.7578 127.143 96.8151 127.57 96.8203L127.406 98.8359C126.677 99.1849 125.917 99.5547 125.125 99.9453C124.333 100.336 123.505 100.698 122.641 101.031C121.776 101.359 120.872 101.638 119.93 101.867C118.992 102.091 118.008 102.214 116.977 102.234H115.492H115.43C115.289 102.234 115.159 102.208 115.039 102.156C114.914 102.104 114.805 102.034 114.711 101.945C114.617 101.852 114.544 101.745 114.492 101.625C114.44 101.505 114.414 101.375 114.414 101.234ZM139.758 106.352C140.138 106.414 140.518 106.438 140.898 106.422C141.284 106.406 141.656 106.357 142.016 106.273C142.375 106.19 142.719 106.078 143.047 105.938C143.38 105.797 143.685 105.635 143.961 105.453L145.016 107.203C144.714 107.385 144.401 107.552 144.078 107.703C143.76 107.859 143.43 107.992 143.086 108.102C142.747 108.211 142.393 108.294 142.023 108.352C141.659 108.414 141.281 108.44 140.891 108.43C140.396 108.419 139.888 108.367 139.367 108.273C138.852 108.185 138.354 108.039 137.875 107.836C137.401 107.633 136.958 107.367 136.547 107.039C136.141 106.711 135.797 106.305 135.516 105.82V105.828C135.333 105.531 135.188 105.201 135.078 104.836C134.969 104.471 134.914 104.094 134.914 103.703C134.914 103.297 134.971 102.901 135.086 102.516C135.206 102.135 135.349 101.789 135.516 101.477C135.672 101.201 135.857 100.94 136.07 100.695C136.284 100.445 136.518 100.214 136.773 100C137.029 99.7865 137.297 99.5938 137.578 99.4219C137.859 99.2448 138.146 99.0885 138.438 98.9531C138.271 98.7969 138.099 98.6432 137.922 98.4922C137.75 98.3359 137.583 98.1901 137.422 98.0547C137.26 97.9141 137.109 97.7865 136.969 97.6719C136.828 97.5521 136.711 97.4505 136.617 97.3672L136.469 95.6953C136.703 95.4818 136.951 95.2891 137.211 95.1172C137.477 94.9401 137.74 94.7839 138 94.6484C138.266 94.513 138.521 94.401 138.766 94.3125C139.01 94.2188 139.232 94.1484 139.43 94.1016C140.003 93.9714 140.576 93.9062 141.148 93.9062C141.451 93.9062 141.74 93.9271 142.016 93.9688C142.292 94.0052 142.555 94.0651 142.805 94.1484L142.797 94.1406C143.396 94.3229 143.854 94.6042 144.172 94.9844C144.49 95.3594 144.638 95.8073 144.617 96.3281C144.596 97.2917 144.159 98.1146 143.305 98.7969C143.154 98.9167 142.982 99.0339 142.789 99.1484C142.602 99.2578 142.419 99.3594 142.242 99.4531C142.451 99.5677 142.672 99.6745 142.906 99.7734C143.146 99.8672 143.388 99.9479 143.633 100.016C143.883 100.083 144.13 100.138 144.375 100.18C144.62 100.216 144.854 100.234 145.078 100.234C145.219 100.234 145.349 100.263 145.469 100.32C145.589 100.372 145.693 100.445 145.781 100.539C145.87 100.633 145.94 100.742 145.992 100.867C146.044 100.987 146.07 101.112 146.07 101.242C146.07 101.383 146.044 101.513 145.992 101.633C145.94 101.753 145.87 101.859 145.781 101.953C145.693 102.042 145.589 102.112 145.469 102.164C145.349 102.216 145.219 102.242 145.078 102.242C144.646 102.242 144.221 102.195 143.805 102.102C143.388 102.013 142.974 101.888 142.562 101.727C142.156 101.56 141.753 101.365 141.352 101.141C140.956 100.911 140.56 100.659 140.164 100.383C139.784 100.534 139.398 100.711 139.008 100.914C138.617 101.112 138.26 101.346 137.938 101.617C137.62 101.883 137.359 102.185 137.156 102.523C136.953 102.862 136.852 103.245 136.852 103.672C136.852 103.911 136.898 104.141 136.992 104.359C137.091 104.578 137.219 104.781 137.375 104.969C137.531 105.161 137.711 105.336 137.914 105.492C138.117 105.654 138.326 105.792 138.539 105.906C138.758 106.026 138.971 106.122 139.18 106.195C139.393 106.273 139.586 106.326 139.758 106.352ZM141.156 95.8125C140.948 95.8125 140.729 95.8281 140.5 95.8594C140.271 95.8854 140.044 95.9245 139.82 95.9766C139.596 96.0234 139.38 96.0833 139.172 96.1562C138.969 96.224 138.789 96.2995 138.633 96.3828C138.742 96.4974 138.865 96.6302 139 96.7812C139.135 96.9271 139.279 97.0807 139.43 97.2422C139.586 97.4036 139.745 97.5651 139.906 97.7266C140.068 97.8828 140.227 98.0286 140.383 98.1641C140.727 98.0182 141.047 97.8698 141.344 97.7188C141.641 97.5677 141.898 97.4141 142.117 97.2578C142.341 97.0964 142.518 96.9297 142.648 96.7578C142.779 96.5859 142.846 96.4089 142.852 96.2266C142.846 96.2057 142.812 96.1745 142.75 96.1328C142.688 96.0911 142.586 96.0495 142.445 96.0078C142.31 95.9609 142.135 95.9193 141.922 95.8828C141.714 95.8464 141.458 95.8229 141.156 95.8125ZM144.07 101.234C144.07 101.094 144.096 100.966 144.148 100.852C144.201 100.732 144.271 100.628 144.359 100.539C144.448 100.445 144.552 100.372 144.672 100.32C144.792 100.268 144.922 100.24 145.062 100.234C145.443 100.234 145.773 100.164 146.055 100.023C146.336 99.8776 146.583 99.6901 146.797 99.4609C147.016 99.2318 147.206 98.974 147.367 98.6875C147.534 98.401 147.69 98.1146 147.836 97.8281C147.971 97.5469 148.112 97.2734 148.258 97.0078C148.409 96.737 148.57 96.4922 148.742 96.2734C148.997 95.9766 149.284 95.7448 149.602 95.5781C149.924 95.4115 150.266 95.3281 150.625 95.3281C151.052 95.3281 151.445 95.4167 151.805 95.5938C152.164 95.7708 152.484 96.026 152.766 96.3594C152.984 96.625 153.161 96.9297 153.297 97.2734C153.438 97.612 153.529 97.9766 153.57 98.3672V98.3516C153.602 98.5547 153.617 98.7734 153.617 99.0078C153.617 99.2734 153.594 99.5312 153.547 99.7812C153.505 100.031 153.44 100.273 153.352 100.508C153.195 100.904 152.971 101.237 152.68 101.508C152.388 101.779 152.07 101.966 151.727 102.07C151.612 102.102 151.497 102.122 151.383 102.133C151.268 102.148 151.151 102.156 151.031 102.156C150.812 102.156 150.581 102.128 150.336 102.07C150.096 102.018 149.852 101.945 149.602 101.852C149.492 101.805 149.37 101.75 149.234 101.688C149.099 101.62 148.961 101.547 148.82 101.469C148.68 101.391 148.539 101.31 148.398 101.227C148.263 101.138 148.135 101.052 148.016 100.969C147.604 101.375 147.161 101.688 146.688 101.906C146.219 102.125 145.677 102.234 145.062 102.234C144.922 102.234 144.792 102.208 144.672 102.156C144.552 102.104 144.448 102.034 144.359 101.945C144.271 101.852 144.201 101.745 144.148 101.625C144.096 101.505 144.07 101.375 144.07 101.234ZM149.188 99.3203C149.359 99.4453 149.552 99.5625 149.766 99.6719C149.984 99.776 150.198 99.8672 150.406 99.9453C150.62 100.023 150.818 100.086 151 100.133C151.182 100.174 151.326 100.195 151.43 100.195C151.497 100.195 151.562 100.188 151.625 100.172C151.677 100.161 151.729 100.13 151.781 100.078C151.839 100.021 151.888 99.9453 151.93 99.8516C151.971 99.7578 152.005 99.6484 152.031 99.5234C152.057 99.3984 152.065 99.2578 152.055 99.1016C152.049 99.0391 152.029 98.9505 151.992 98.8359C151.961 98.7161 151.914 98.5885 151.852 98.4531C151.794 98.3177 151.721 98.1797 151.633 98.0391C151.544 97.8984 151.443 97.7734 151.328 97.6641C151.219 97.5495 151.094 97.4557 150.953 97.3828C150.818 97.3099 150.669 97.2734 150.508 97.2734C150.362 97.2734 150.216 97.388 150.07 97.6172C149.93 97.8464 149.745 98.1875 149.516 98.6406L149.188 99.3203ZM159.062 102.234C158.453 102.234 157.932 102.159 157.5 102.008C157.073 101.862 156.703 101.638 156.391 101.336C156.203 101.148 156.057 100.948 155.953 100.734C155.854 100.521 155.781 100.31 155.734 100.102C155.688 99.8932 155.659 99.6979 155.648 99.5156C155.643 99.3281 155.641 99.1667 155.641 99.0312C155.646 98.8646 155.651 98.5911 155.656 98.2109C155.667 97.8255 155.672 97.3568 155.672 96.8047C155.672 96.4766 155.669 96.1276 155.664 95.7578C155.664 95.3828 155.661 95.0026 155.656 94.6172C155.651 94.2318 155.641 93.8464 155.625 93.4609C155.609 93.0703 155.591 92.6953 155.57 92.3359C155.549 91.9766 155.521 91.6406 155.484 91.3281C155.453 91.0104 155.414 90.7292 155.367 90.4844L157.328 89.8984C157.385 90.2005 157.435 90.5651 157.477 90.9922C157.518 91.4193 157.552 91.875 157.578 92.3594C157.609 92.8385 157.63 93.3307 157.641 93.8359C157.656 94.3359 157.664 94.8125 157.664 95.2656C157.664 95.5417 157.667 95.8359 157.672 96.1484C157.677 96.4557 157.68 96.7266 157.68 96.9609C157.68 97.1589 157.677 97.3464 157.672 97.5234C157.672 97.6953 157.669 97.862 157.664 98.0234C157.664 98.1849 157.661 98.3438 157.656 98.5C157.656 98.6562 157.656 98.8151 157.656 98.9766C157.651 99.1745 157.656 99.362 157.672 99.5391C157.688 99.7109 157.74 99.8385 157.828 99.9219C158.016 100.115 158.404 100.216 158.992 100.227H159.062C159.198 100.227 159.326 100.255 159.445 100.312C159.57 100.365 159.677 100.438 159.766 100.531C159.859 100.62 159.932 100.727 159.984 100.852C160.042 100.971 160.07 101.099 160.07 101.234C160.07 101.375 160.042 101.508 159.984 101.633C159.932 101.753 159.859 101.857 159.766 101.945C159.677 102.034 159.57 102.104 159.445 102.156C159.326 102.208 159.198 102.234 159.062 102.234ZM158.023 101.234C158.023 101.094 158.049 100.964 158.102 100.844C158.154 100.719 158.227 100.612 158.32 100.523C158.414 100.435 158.523 100.365 158.648 100.312C158.768 100.26 158.898 100.234 159.039 100.234H160.586C161.232 100.234 161.888 100.174 162.555 100.055C163.227 99.9297 163.893 99.7682 164.555 99.5703C165.216 99.3672 165.862 99.1354 166.492 98.875C167.122 98.6146 167.719 98.3464 168.281 98.0703C167.833 97.9714 167.417 97.8411 167.031 97.6797C166.646 97.513 166.281 97.3516 165.938 97.1953C165.594 97.0391 165.263 96.9036 164.945 96.7891C164.628 96.6745 164.312 96.6172 164 96.6172C163.818 96.6172 163.646 96.651 163.484 96.7188C163.328 96.7812 163.182 96.862 163.047 96.9609C162.911 97.0599 162.789 97.1693 162.68 97.2891C162.576 97.4089 162.482 97.526 162.398 97.6406C162.32 97.75 162.255 97.849 162.203 97.9375C162.151 98.026 162.115 98.0885 162.094 98.125L160.469 97.0703C160.646 96.7578 160.857 96.4557 161.102 96.1641C161.346 95.8672 161.617 95.6042 161.914 95.375C162.216 95.1406 162.542 94.9557 162.891 94.8203C163.24 94.6797 163.609 94.6094 164 94.6094C164.401 94.6094 164.799 94.6641 165.195 94.7734C165.591 94.8776 165.982 95.013 166.367 95.1797C166.758 95.3411 167.148 95.5156 167.539 95.7031C167.93 95.8906 168.323 96.0677 168.719 96.2344C169.12 96.3958 169.523 96.5339 169.93 96.6484C170.336 96.7578 170.753 96.8151 171.18 96.8203L171.016 98.8359C170.286 99.1849 169.526 99.5547 168.734 99.9453C167.943 100.336 167.115 100.698 166.25 101.031C165.385 101.359 164.482 101.638 163.539 101.867C162.602 102.091 161.617 102.214 160.586 102.234H159.102H159.039C158.898 102.234 158.768 102.208 158.648 102.156C158.523 102.104 158.414 102.034 158.32 101.945C158.227 101.852 158.154 101.745 158.102 101.625C158.049 101.505 158.023 101.375 158.023 101.234ZM165.023 106.336L163.523 104.836L165.016 103.344L166.516 104.844L165.023 106.336ZM181.844 97.0391C182.026 97.5443 182.182 98.0469 182.312 98.5469C182.37 98.7604 182.424 98.987 182.477 99.2266C182.534 99.4609 182.583 99.6979 182.625 99.9375C182.672 100.177 182.708 100.414 182.734 100.648C182.766 100.878 182.781 101.094 182.781 101.297C182.781 101.766 182.708 102.221 182.562 102.664C182.422 103.112 182.224 103.542 181.969 103.953C181.719 104.37 181.419 104.766 181.07 105.141C180.727 105.516 180.352 105.87 179.945 106.203C179.539 106.536 179.109 106.846 178.656 107.133C178.203 107.419 177.745 107.677 177.281 107.906L176.391 106.117C176.76 105.935 177.125 105.732 177.484 105.508C177.844 105.289 178.185 105.055 178.508 104.805C178.836 104.555 179.138 104.292 179.414 104.016C179.695 103.74 179.935 103.453 180.133 103.156C180.336 102.859 180.495 102.555 180.609 102.242C180.724 101.93 180.781 101.615 180.781 101.297C180.781 101 180.747 100.688 180.68 100.359C180.612 100.031 180.529 99.7083 180.43 99.3906C180.336 99.0677 180.237 98.7578 180.133 98.4609C180.034 98.1641 179.951 97.901 179.883 97.6719L181.844 97.0391ZM184.703 102.219C184.729 101.792 184.753 101.359 184.773 100.922C184.794 100.484 184.812 100.055 184.828 99.6328C184.844 99.2109 184.854 98.7995 184.859 98.3984C184.87 97.9974 184.875 97.6198 184.875 97.2656C184.875 96.5312 184.867 95.8776 184.852 95.3047C184.836 94.7266 184.812 94.2135 184.781 93.7656C184.755 93.3125 184.724 92.9167 184.688 92.5781C184.656 92.2344 184.622 91.9323 184.586 91.6719C184.549 91.4062 184.516 91.1745 184.484 90.9766C184.453 90.7786 184.424 90.5964 184.398 90.4297L186.406 89.75C186.417 89.7812 186.424 89.8151 186.43 89.8516C186.44 89.8828 186.451 89.9323 186.461 90C186.477 90.0677 186.49 90.1615 186.5 90.2812C186.516 90.401 186.534 90.5651 186.555 90.7734C186.581 90.9766 186.607 91.2344 186.633 91.5469C186.664 91.8542 186.701 92.2318 186.742 92.6797C186.768 93.112 186.789 93.513 186.805 93.8828C186.826 94.2526 186.841 94.6172 186.852 94.9766C186.862 95.3307 186.87 95.6953 186.875 96.0703C186.88 96.4401 186.883 96.8438 186.883 97.2812C186.883 97.9948 186.875 98.7266 186.859 99.4766C186.844 100.227 186.807 101.039 186.75 101.914L184.703 102.219ZM192.875 102.234C192.812 102.234 192.732 102.232 192.633 102.227C192.534 102.227 192.424 102.216 192.305 102.195C192.185 102.174 192.057 102.141 191.922 102.094C191.792 102.052 191.661 101.99 191.531 101.906C191.464 102.562 191.263 103.19 190.93 103.789C190.596 104.393 190.177 104.958 189.672 105.484C189.172 106.01 188.607 106.492 187.977 106.93C187.352 107.367 186.708 107.75 186.047 108.078L185.172 106.273C185.536 106.086 185.904 105.883 186.273 105.664C186.638 105.445 186.987 105.211 187.32 104.961C187.654 104.711 187.964 104.451 188.25 104.18C188.542 103.909 188.792 103.625 189 103.328C189.214 103.031 189.38 102.727 189.5 102.414C189.625 102.102 189.688 101.781 189.688 101.453C189.688 101.411 189.685 101.37 189.68 101.328C189.68 101.281 189.677 101.237 189.672 101.195V101.203C189.635 100.911 189.576 100.617 189.492 100.32C189.409 100.018 189.315 99.7266 189.211 99.4453C189.112 99.1641 189.013 98.8958 188.914 98.6406C188.815 98.3802 188.732 98.1458 188.664 97.9375L190.539 97.1562C190.742 97.7656 190.932 98.2708 191.109 98.6719C191.292 99.0677 191.474 99.3828 191.656 99.6172C191.839 99.8464 192.023 100.008 192.211 100.102C192.404 100.19 192.615 100.234 192.844 100.234H192.883C193.023 100.234 193.154 100.263 193.273 100.32C193.398 100.372 193.505 100.445 193.594 100.539C193.688 100.628 193.76 100.734 193.812 100.859C193.865 100.979 193.891 101.107 193.891 101.242C193.891 101.383 193.865 101.513 193.812 101.633C193.76 101.753 193.688 101.859 193.594 101.953C193.505 102.042 193.398 102.109 193.273 102.156C193.148 102.208 193.016 102.234 192.875 102.234ZM189.461 95.2969L187.961 93.7969L189.453 92.3047L190.953 93.8047L189.461 95.2969ZM191.82 101.234C191.82 101.094 191.846 100.964 191.898 100.844C191.951 100.719 192.023 100.612 192.117 100.523C192.211 100.435 192.32 100.365 192.445 100.312C192.565 100.26 192.695 100.234 192.836 100.234C193.336 100.234 193.833 100.214 194.328 100.172C194.828 100.13 195.292 100.076 195.719 100.008C196.151 99.9401 196.531 99.8646 196.859 99.7812C197.188 99.6927 197.432 99.6042 197.594 99.5156H196.797C196.5 99.5156 196.208 99.4922 195.922 99.4453C195.641 99.3932 195.375 99.3203 195.125 99.2266C194.875 99.1276 194.646 99.0078 194.438 98.8672C194.229 98.7214 194.052 98.5547 193.906 98.3672C193.776 98.2005 193.654 97.9818 193.539 97.7109C193.43 97.4401 193.375 97.1042 193.375 96.7031C193.375 96.4948 193.391 96.2891 193.422 96.0859C193.573 95.2318 193.867 94.5339 194.305 93.9922V94C194.57 93.6562 194.859 93.401 195.172 93.2344C195.49 93.0625 195.828 92.9766 196.188 92.9766C196.547 92.9766 196.904 93.0677 197.258 93.25C197.612 93.4323 197.938 93.6719 198.234 93.9688C198.448 94.2135 198.641 94.4922 198.812 94.8047C198.984 95.112 199.13 95.4427 199.25 95.7969C199.375 96.1458 199.471 96.5104 199.539 96.8906C199.607 97.2708 199.641 97.651 199.641 98.0312C199.641 98.1406 199.638 98.2526 199.633 98.3672C199.628 98.4818 199.62 98.5911 199.609 98.6953C199.552 99.2005 199.419 99.6406 199.211 100.016C199.008 100.385 198.747 100.701 198.43 100.961C198.112 101.221 197.745 101.435 197.328 101.602C196.917 101.763 196.474 101.891 196 101.984C195.526 102.073 195.031 102.135 194.516 102.172C194 102.208 193.479 102.229 192.953 102.234H192.82C192.68 102.234 192.549 102.208 192.43 102.156C192.31 102.104 192.206 102.034 192.117 101.945C192.023 101.852 191.951 101.745 191.898 101.625C191.846 101.505 191.82 101.375 191.82 101.234ZM196.188 94.9922C196.094 94.987 195.99 95.0182 195.875 95.0859C195.76 95.1484 195.648 95.2344 195.539 95.3438C195.43 95.4531 195.328 95.5807 195.234 95.7266C195.141 95.8724 195.068 96.026 195.016 96.1875C194.964 96.349 194.94 96.5104 194.945 96.6719C194.951 96.8333 194.995 96.9844 195.078 97.125C195.109 97.1823 195.177 97.2344 195.281 97.2812C195.391 97.3229 195.516 97.362 195.656 97.3984C195.797 97.4297 195.943 97.4557 196.094 97.4766C196.245 97.4974 196.383 97.5104 196.508 97.5156C196.716 97.526 196.935 97.5286 197.164 97.5234C197.398 97.5182 197.596 97.5104 197.758 97.5C197.711 97.3125 197.643 97.0807 197.555 96.8047C197.471 96.5234 197.365 96.2526 197.234 95.9922C197.109 95.7266 196.958 95.4974 196.781 95.3047C196.609 95.112 196.411 95.0078 196.188 94.9922ZM195.953 92.0078L194.453 90.5078L195.945 89.0156L197.445 90.5156L195.953 92.0078ZM201.562 102.219C201.589 101.792 201.612 101.359 201.633 100.922C201.654 100.484 201.672 100.055 201.688 99.6328C201.703 99.2109 201.714 98.7995 201.719 98.3984C201.729 97.9974 201.734 97.6198 201.734 97.2656C201.734 96.5312 201.727 95.8776 201.711 95.3047C201.695 94.7266 201.672 94.2135 201.641 93.7656C201.615 93.3125 201.583 92.9167 201.547 92.5781C201.516 92.2344 201.482 91.9323 201.445 91.6719C201.409 91.4062 201.375 91.1745 201.344 90.9766C201.312 90.7786 201.284 90.5964 201.258 90.4297L203.266 89.75C203.276 89.7812 203.284 89.8151 203.289 89.8516C203.299 89.8828 203.31 89.9323 203.32 90C203.336 90.0677 203.349 90.1615 203.359 90.2812C203.375 90.401 203.393 90.5651 203.414 90.7734C203.44 90.9766 203.466 91.2344 203.492 91.5469C203.523 91.8542 203.56 92.2318 203.602 92.6797C203.628 93.112 203.648 93.513 203.664 93.8828C203.685 94.2526 203.701 94.6172 203.711 94.9766C203.721 95.3307 203.729 95.6953 203.734 96.0703C203.74 96.4401 203.742 96.8438 203.742 97.2812C203.742 97.9948 203.734 98.7266 203.719 99.4766C203.703 100.227 203.667 101.039 203.609 101.914L201.562 102.219ZM211.102 100.477C211.102 100.44 211.104 100.359 211.109 100.234C211.115 100.104 211.138 99.9557 211.18 99.7891C211.227 99.6224 211.299 99.4479 211.398 99.2656C211.497 99.0833 211.641 98.9219 211.828 98.7812C211.896 98.7135 211.99 98.6536 212.109 98.6016C212.229 98.5495 212.359 98.5104 212.5 98.4844C212.641 98.4583 212.784 98.4453 212.93 98.4453C213.076 98.4401 213.208 98.4531 213.328 98.4844C213.396 98.276 213.484 98.0573 213.594 97.8281C213.703 97.5938 213.823 97.3672 213.953 97.1484C214.089 96.9245 214.227 96.7161 214.367 96.5234C214.513 96.3255 214.656 96.1562 214.797 96.0156C215.375 95.4427 216.005 95.1693 216.688 95.1953C217.156 95.2161 217.573 95.3177 217.938 95.5C218.307 95.6823 218.625 95.9531 218.891 96.3125C219.312 96.901 219.549 97.5964 219.602 98.3984C219.607 98.4557 219.609 98.5156 219.609 98.5781C219.609 98.6406 219.609 98.7005 219.609 98.7578C219.609 99.0703 219.583 99.375 219.531 99.6719C219.484 99.9635 219.404 100.242 219.289 100.508V100.5C219.122 100.922 218.906 101.26 218.641 101.516C218.375 101.771 218.068 101.927 217.719 101.984C217.599 102.031 217.427 102.036 217.203 102C216.979 101.964 216.724 101.904 216.438 101.82C216.156 101.737 215.854 101.635 215.531 101.516C215.214 101.391 214.898 101.268 214.586 101.148C214.273 101.029 213.977 100.914 213.695 100.805C213.419 100.695 213.18 100.609 212.977 100.547L213.375 107.633L211.398 107.945L211.102 100.477ZM215.328 98.2734C215.26 98.4036 215.198 98.5339 215.141 98.6641C215.089 98.7943 215.036 98.9193 214.984 99.0391C215.156 99.112 215.357 99.1979 215.586 99.2969C215.82 99.3906 216.062 99.4844 216.312 99.5781C216.562 99.6719 216.807 99.7604 217.047 99.8438C217.286 99.9219 217.497 99.9818 217.68 100.023C217.716 99.9609 217.75 99.8776 217.781 99.7734C217.818 99.6693 217.846 99.5625 217.867 99.4531C217.893 99.3385 217.911 99.2266 217.922 99.1172C217.938 99.0026 217.945 98.901 217.945 98.8125C217.945 98.5833 217.906 98.3698 217.828 98.1719C217.75 97.9688 217.648 97.7943 217.523 97.6484C217.398 97.5026 217.255 97.3906 217.094 97.3125C216.938 97.2292 216.779 97.1927 216.617 97.2031C216.549 97.2083 216.461 97.2318 216.352 97.2734C216.247 97.3151 216.135 97.3776 216.016 97.4609C215.896 97.5443 215.773 97.6536 215.648 97.7891C215.529 97.9193 215.422 98.0807 215.328 98.2734ZM226.734 102.234C226.672 102.234 226.591 102.232 226.492 102.227C226.393 102.227 226.284 102.216 226.164 102.195C226.044 102.174 225.917 102.141 225.781 102.094C225.651 102.052 225.521 101.99 225.391 101.906C225.323 102.562 225.122 103.19 224.789 103.789C224.456 104.393 224.036 104.958 223.531 105.484C223.031 106.01 222.466 106.492 221.836 106.93C221.211 107.367 220.568 107.75 219.906 108.078L219.031 106.273C219.396 106.086 219.763 105.883 220.133 105.664C220.497 105.445 220.846 105.211 221.18 104.961C221.513 104.711 221.823 104.451 222.109 104.18C222.401 103.909 222.651 103.625 222.859 103.328C223.073 103.031 223.24 102.727 223.359 102.414C223.484 102.102 223.547 101.781 223.547 101.453C223.547 101.411 223.544 101.37 223.539 101.328C223.539 101.281 223.536 101.237 223.531 101.195V101.203C223.495 100.911 223.435 100.617 223.352 100.32C223.268 100.018 223.174 99.7266 223.07 99.4453C222.971 99.1641 222.872 98.8958 222.773 98.6406C222.674 98.3802 222.591 98.1458 222.523 97.9375L224.398 97.1562C224.602 97.7656 224.792 98.2708 224.969 98.6719C225.151 99.0677 225.333 99.3828 225.516 99.6172C225.698 99.8464 225.883 100.008 226.07 100.102C226.263 100.19 226.474 100.234 226.703 100.234H226.742C226.883 100.234 227.013 100.263 227.133 100.32C227.258 100.372 227.365 100.445 227.453 100.539C227.547 100.628 227.62 100.734 227.672 100.859C227.724 100.979 227.75 101.107 227.75 101.242C227.75 101.383 227.724 101.513 227.672 101.633C227.62 101.753 227.547 101.859 227.453 101.953C227.365 102.042 227.258 102.109 227.133 102.156C227.008 102.208 226.875 102.234 226.734 102.234ZM225.617 101.234C225.617 101.094 225.643 100.964 225.695 100.844C225.747 100.719 225.82 100.612 225.914 100.523C226.003 100.435 226.107 100.365 226.227 100.312C226.346 100.26 226.477 100.234 226.617 100.234H227.422H227.773C227.992 100.234 228.208 100.227 228.422 100.211C228.635 100.19 228.836 100.151 229.023 100.094C229.211 100.036 229.375 99.9557 229.516 99.8516C229.661 99.7474 229.773 99.612 229.852 99.4453C229.909 99.3203 229.938 99.1484 229.938 98.9297C229.938 98.7943 229.909 98.6042 229.852 98.3594C229.794 98.1146 229.719 97.8438 229.625 97.5469C229.531 97.25 229.419 96.9427 229.289 96.625C229.164 96.3073 229.031 96.0104 228.891 95.7344L230.695 94.8438C230.826 95.1406 230.956 95.4557 231.086 95.7891C231.216 96.1224 231.331 96.4661 231.43 96.8203C231.534 97.1693 231.617 97.5208 231.68 97.875C231.742 98.2292 231.773 98.5755 231.773 98.9141C231.773 99.4193 231.688 99.8698 231.516 100.266C231.318 100.724 231.039 101.102 230.68 101.398C230.326 101.69 229.898 101.909 229.398 102.055C229.102 102.138 228.812 102.188 228.531 102.203C228.255 102.224 227.997 102.234 227.758 102.234H226.688H226.617C226.477 102.234 226.346 102.208 226.227 102.156C226.107 102.104 226.003 102.034 225.914 101.945C225.82 101.857 225.747 101.753 225.695 101.633C225.643 101.508 225.617 101.375 225.617 101.234ZM229.258 93.7422L227.758 92.2422L229.25 90.75L230.75 92.25L229.258 93.7422Z" fill="#2F2E41"/>
<path d="M34.4258 45.5859C32.9414 45.5859 31.5872 45.3125 30.3633 44.7656C30.3763 45.8464 30.2852 46.9531 30.0898 48.0859C29.8945 49.2188 29.5755 50.306 29.1328 51.3477C28.6901 52.3893 28.1172 53.3529 27.4141 54.2383C26.724 55.1367 25.8841 55.8854 24.8945 56.4844H24.9141C24.2891 56.901 23.625 57.2591 22.9219 57.5586C22.2318 57.8581 21.4896 58.1055 20.6953 58.3008C19.9141 58.4961 19.0872 58.6458 18.2148 58.75C17.3424 58.8672 16.418 58.9518 15.4414 59.0039C13.2669 59.0039 11.3984 58.7435 9.83594 58.2227C8.28646 57.7018 6.9388 56.9531 5.79297 55.9766C4.41276 54.7135 3.38411 53.2292 2.70703 51.5234C2.02995 49.8177 1.69141 48.0078 1.69141 46.0938C1.69141 45 1.76302 43.9714 1.90625 43.0078C2.04948 42.0443 2.26432 41.0938 2.55078 40.1562C2.83724 39.2057 3.20182 38.2422 3.64453 37.2656C4.08724 36.2891 4.60807 35.2409 5.20703 34.1211L9.30859 37.0898C8.90495 37.819 8.50781 38.6198 8.11719 39.4922C7.72656 40.3516 7.38151 41.25 7.08203 42.1875C6.79557 43.112 6.58073 44.043 6.4375 44.9805C6.30729 45.918 6.30078 46.8164 6.41797 47.6758C6.47005 47.9883 6.5612 48.3594 6.69141 48.7891C6.83464 49.2318 7.03646 49.6875 7.29688 50.1562C7.57031 50.625 7.90885 51.0872 8.3125 51.543C8.72917 52.0117 9.23047 52.4219 9.81641 52.7734C10.4023 53.138 11.0859 53.431 11.8672 53.6523C12.6615 53.8867 13.5729 54.0039 14.6016 54.0039C14.7578 54.0039 14.8685 54.0039 14.9336 54.0039C14.9987 54.0039 15.0638 53.9974 15.1289 53.9844C16.431 53.9193 17.6419 53.7891 18.7617 53.5938C19.8815 53.3984 20.8841 53.0924 21.7695 52.6758C22.668 52.2721 23.4362 51.7383 24.0742 51.0742C24.7122 50.4232 25.207 49.6094 25.5586 48.6328C25.8841 47.7214 26.0143 46.7513 25.9492 45.7227C25.8971 44.707 25.7018 43.6458 25.3633 42.5391C25.0378 41.4323 24.6081 40.293 24.0742 39.1211C23.5404 37.9362 22.9674 36.7253 22.3555 35.4883L26.6914 32.7344L28.3711 35.957C28.957 37.1159 29.5234 38.0078 30.0703 38.6328C30.6172 39.2578 31.1445 39.7201 31.6523 40.0195C32.1602 40.306 32.6419 40.4753 33.0977 40.5273C33.5664 40.5664 34.0091 40.5859 34.4258 40.5859C34.7773 40.5859 35.1029 40.651 35.4023 40.7812C35.7148 40.9115 35.9818 41.0872 36.2031 41.3086C36.4375 41.5299 36.6198 41.7969 36.75 42.1094C36.8802 42.4089 36.9453 42.7344 36.9453 43.0859C36.9453 43.4375 36.8802 43.763 36.75 44.0625C36.6198 44.362 36.4375 44.6289 36.2031 44.8633C35.9818 45.0846 35.7148 45.2604 35.4023 45.3906C35.1029 45.5208 34.7773 45.5859 34.4258 45.5859ZM15.168 37.5L11.418 33.75L15.1484 30.0195L18.8984 33.7695L15.168 37.5ZM31.5938 43.0859C31.5938 42.7344 31.6589 42.4089 31.7891 42.1094C31.9193 41.7969 32.0951 41.5299 32.3164 41.3086C32.5378 41.0872 32.8047 40.9115 33.1172 40.7812C33.4167 40.651 33.7422 40.5859 34.0938 40.5859H35.5781C36.5938 40.5859 37.5638 40.5404 38.4883 40.4492C39.4258 40.3581 40.2526 40.1693 40.9688 39.8828C41.6849 39.5833 42.2643 39.1667 42.707 38.6328C43.1497 38.0859 43.3906 37.3698 43.4297 36.4844C43.4427 36.1328 43.4297 35.7878 43.3906 35.4492C43.3516 35.1107 43.2865 34.7526 43.1953 34.375C43.1172 33.9844 43.013 33.5612 42.8828 33.1055C42.7526 32.6497 42.6029 32.1224 42.4336 31.5234L47.2188 30.1758C47.388 30.8008 47.5247 31.3737 47.6289 31.8945C47.7331 32.4023 47.8177 32.8971 47.8828 33.3789C47.9479 33.8477 48 34.3294 48.0391 34.8242C48.0911 35.319 48.1432 35.8659 48.1953 36.4648C48.2344 36.9206 48.293 37.3893 48.3711 37.8711C48.4492 38.3529 48.5794 38.7956 48.7617 39.1992C48.957 39.6029 49.2174 39.9349 49.543 40.1953C49.8815 40.4557 50.3242 40.5859 50.8711 40.5859C51.2227 40.5859 51.5482 40.651 51.8477 40.7812C52.1602 40.9115 52.4271 41.0872 52.6484 41.3086C52.8828 41.5299 53.0651 41.7969 53.1953 42.1094C53.3255 42.4089 53.3906 42.7344 53.3906 43.0859C53.3906 43.4375 53.319 43.7695 53.1758 44.082C53.0456 44.3815 52.8633 44.6419 52.6289 44.8633C52.4076 45.0846 52.1406 45.2604 51.8281 45.3906C51.5286 45.5208 51.2161 45.5859 50.8906 45.5859C49.6016 45.5859 48.5208 45.3776 47.6484 44.9609C46.776 44.5443 46.0404 44.0039 45.4414 43.3398C44.8945 43.7565 44.2435 44.1081 43.4883 44.3945C42.7331 44.681 41.9193 44.9089 41.0469 45.0781C40.1875 45.2604 39.2891 45.3906 38.3516 45.4688C37.4141 45.5469 36.4896 45.5859 35.5781 45.5859H34.0938C33.7422 45.5859 33.4167 45.5208 33.1172 45.3906C32.8047 45.2604 32.5378 45.0846 32.3164 44.8633C32.0951 44.6419 31.9193 44.3815 31.7891 44.082C31.6589 43.7695 31.5938 43.4375 31.5938 43.0859ZM37.4922 55.7227L34.1328 52.3828L37.4531 49.043L40.8125 52.4023L37.4922 55.7227ZM44.875 55.7617L41.5156 52.4023L44.8359 49.082L48.1953 52.4219L44.875 55.7617ZM48.6445 43.1055C48.6445 42.7799 48.7096 42.4674 48.8398 42.168C48.957 41.8685 49.1263 41.6081 49.3477 41.3867C49.556 41.1654 49.8034 40.9831 50.0898 40.8398C50.3763 40.6966 50.6823 40.612 51.0078 40.5859C51.7891 40.5859 52.4792 40.4297 53.0781 40.1172C53.6771 39.8047 54.2044 39.388 54.6602 38.8672C55.1159 38.3464 55.5065 37.7539 55.832 37.0898C56.1706 36.4258 56.457 35.7422 56.6914 35.0391C56.9388 34.3359 57.1471 33.6458 57.3164 32.9688C57.4857 32.2786 57.6419 31.6602 57.7852 31.1133L62.668 32.1875C62.5508 32.5521 62.3945 33.0208 62.1992 33.5938C62.0039 34.1536 61.8151 34.7526 61.6328 35.3906C61.4635 36.0156 61.3203 36.6536 61.2031 37.3047C61.0859 37.9427 61.0469 38.5221 61.0859 39.043C61.125 39.5508 61.2617 39.9674 61.4961 40.293C61.7435 40.6055 62.1406 40.7617 62.6875 40.7617C63.2734 40.7617 63.8008 40.599 64.2695 40.2734C64.7383 39.9349 65.1549 39.4987 65.5195 38.9648C65.8971 38.418 66.2227 37.7995 66.4961 37.1094C66.7826 36.4193 67.0234 35.7161 67.2188 35C67.4271 34.2708 67.5964 33.5612 67.7266 32.8711C67.8698 32.181 67.9805 31.5625 68.0586 31.0156L72.6289 31.8945C72.5898 32.2982 72.5247 32.7214 72.4336 33.1641C72.3555 33.6068 72.2708 34.069 72.1797 34.5508C72.0885 35.0195 72.0104 35.5143 71.9453 36.0352C71.8802 36.543 71.8477 37.0703 71.8477 37.6172C71.8477 38.0469 71.8867 38.4505 71.9648 38.8281C72.056 39.2057 72.1992 39.5443 72.3945 39.8438C72.6029 40.1302 72.8698 40.3646 73.1953 40.5469C73.5208 40.7161 73.931 40.8073 74.4258 40.8203C75.3503 40.8203 76.1055 40.5859 76.6914 40.1172C77.2773 39.6484 77.5703 38.9323 77.5703 37.9688C77.5703 37.2656 77.4727 36.5039 77.2773 35.6836C77.0951 34.8633 76.8672 34.0625 76.5938 33.2812C76.3333 32.5 76.0534 31.7643 75.7539 31.0742C75.4544 30.3841 75.194 29.8112 74.9727 29.3555L79.1719 27.0117C79.25 27.1549 79.3737 27.4154 79.543 27.793C79.7253 28.1706 79.9271 28.6393 80.1484 29.1992C80.3828 29.7461 80.6172 30.3646 80.8516 31.0547C81.0859 31.7448 81.3008 32.474 81.4961 33.2422C81.7044 33.9974 81.8672 34.7721 81.9844 35.5664C82.1146 36.3607 82.1797 37.1419 82.1797 37.9102C82.1797 39.1211 81.9909 40.2148 81.6133 41.1914C81.2487 42.168 80.7018 43.0013 79.9727 43.6914C79.2565 44.3815 78.3711 44.9089 77.3164 45.2734C76.2617 45.651 75.0508 45.8333 73.6836 45.8203C73.0195 45.8333 72.4206 45.7552 71.8867 45.5859C71.3659 45.4167 70.8906 45.1888 70.4609 44.9023C70.0443 44.6029 69.6667 44.2643 69.3281 43.8867C69.0026 43.5091 68.7096 43.125 68.4492 42.7344C68.1497 43.1641 67.8242 43.5677 67.4727 43.9453C67.1211 44.3099 66.7109 44.6289 66.2422 44.9023C65.7865 45.1758 65.2656 45.3906 64.6797 45.5469C64.1068 45.7161 63.4427 45.8073 62.6875 45.8203C62.0495 45.8333 61.4701 45.7552 60.9492 45.5859C60.4284 45.4297 59.9531 45.2148 59.5234 44.9414C59.1068 44.6549 58.7227 44.3229 58.3711 43.9453C58.0326 43.5677 57.7201 43.1706 57.4336 42.7539C57.1862 43.1185 56.8997 43.4766 56.5742 43.8281C56.2487 44.1667 55.8516 44.4661 55.3828 44.7266C54.9141 44.987 54.3477 45.1953 53.6836 45.3516C53.0326 45.5208 52.2513 45.6055 51.3398 45.6055H51.0078C50.6823 45.5924 50.3763 45.5143 50.0898 45.3711C49.8034 45.2409 49.556 45.0651 49.3477 44.8438C49.1263 44.6094 48.957 44.349 48.8398 44.0625C48.7096 43.763 48.6445 43.444 48.6445 43.1055ZM94.543 32.5977C94.9987 33.8607 95.3893 35.1172 95.7148 36.3672C95.8581 36.901 95.9948 37.4674 96.125 38.0664C96.2682 38.6523 96.3919 39.2448 96.4961 39.8438C96.6133 40.4427 96.7044 41.0352 96.7695 41.6211C96.8477 42.194 96.8867 42.7344 96.8867 43.2422C96.8867 44.4141 96.7044 45.5534 96.3398 46.6602C95.9883 47.7799 95.4935 48.8542 94.8555 49.8828C94.2305 50.9245 93.4818 51.9141 92.6094 52.8516C91.75 53.7891 90.8125 54.6745 89.7969 55.5078C88.7812 56.3411 87.707 57.1159 86.5742 57.832C85.4414 58.5482 84.2956 59.1927 83.1367 59.7656L80.9102 55.293C81.8346 54.8372 82.7461 54.3294 83.6445 53.7695C84.543 53.2227 85.3958 52.6367 86.2031 52.0117C87.0234 51.3867 87.7786 50.7292 88.4688 50.0391C89.1719 49.349 89.7708 48.6328 90.2656 47.8906C90.7734 47.1484 91.1706 46.3867 91.457 45.6055C91.7435 44.8242 91.8867 44.0365 91.8867 43.2422C91.8867 42.5 91.8021 41.7188 91.6328 40.8984C91.4635 40.0781 91.2552 39.2708 91.0078 38.4766C90.7734 37.6693 90.526 36.8945 90.2656 36.1523C90.0182 35.4102 89.8099 34.7526 89.6406 34.1797L94.543 32.5977ZM110.715 45.5859C109.191 45.5859 107.889 45.3971 106.809 45.0195C105.741 44.6549 104.816 44.0951 104.035 43.3398C103.566 42.8711 103.202 42.3698 102.941 41.8359C102.694 41.3021 102.512 40.7747 102.395 40.2539C102.277 39.7331 102.206 39.2448 102.18 38.7891C102.167 38.3203 102.16 37.9167 102.16 37.5781C102.173 37.1615 102.186 36.4779 102.199 35.5273C102.225 34.5638 102.238 33.3919 102.238 32.0117C102.238 31.1914 102.232 30.319 102.219 29.3945C102.219 28.457 102.212 27.5065 102.199 26.543C102.186 25.5794 102.16 24.6159 102.121 23.6523C102.082 22.6758 102.036 21.7383 101.984 20.8398C101.932 19.9414 101.861 19.1016 101.77 18.3203C101.691 17.526 101.594 16.8229 101.477 16.2109L106.379 14.7461C106.522 15.5013 106.646 16.4128 106.75 17.4805C106.854 18.5482 106.939 19.6875 107.004 20.8984C107.082 22.0964 107.134 23.3268 107.16 24.5898C107.199 25.8398 107.219 27.0312 107.219 28.1641C107.219 28.8542 107.225 29.5898 107.238 30.3711C107.251 31.1393 107.258 31.8164 107.258 32.4023C107.258 32.8971 107.251 33.3659 107.238 33.8086C107.238 34.2383 107.232 34.6549 107.219 35.0586C107.219 35.4622 107.212 35.8594 107.199 36.25C107.199 36.6406 107.199 37.0378 107.199 37.4414C107.186 37.9362 107.199 38.4049 107.238 38.8477C107.277 39.2773 107.408 39.5964 107.629 39.8047C108.098 40.2865 109.068 40.5404 110.539 40.5664H110.715C111.053 40.5664 111.372 40.638 111.672 40.7812C111.984 40.9115 112.251 41.0938 112.473 41.3281C112.707 41.5495 112.889 41.8164 113.02 42.1289C113.163 42.4284 113.234 42.7474 113.234 43.0859C113.234 43.4375 113.163 43.7695 113.02 44.082C112.889 44.3815 112.707 44.6419 112.473 44.8633C112.251 45.0846 111.984 45.2604 111.672 45.3906C111.372 45.5208 111.053 45.5859 110.715 45.5859ZM108.195 43.0859C108.195 42.7344 108.26 42.4154 108.391 42.1289C108.521 41.8294 108.697 41.569 108.918 41.3477C109.139 41.1133 109.4 40.931 109.699 40.8008C109.999 40.6706 110.324 40.599 110.676 40.5859C111.626 40.5859 112.453 40.4102 113.156 40.0586C113.859 39.694 114.478 39.2253 115.012 38.6523C115.559 38.0794 116.034 37.4349 116.438 36.7188C116.854 36.0026 117.245 35.2865 117.609 34.5703C117.948 33.8672 118.299 33.1836 118.664 32.5195C119.042 31.8424 119.445 31.2305 119.875 30.6836C120.513 29.9414 121.229 29.362 122.023 28.9453C122.831 28.5286 123.684 28.3203 124.582 28.3203C125.65 28.3203 126.633 28.5417 127.531 28.9844C128.43 29.4271 129.23 30.0651 129.934 30.8984C130.48 31.5625 130.923 32.3242 131.262 33.1836C131.613 34.0299 131.841 34.9414 131.945 35.918V35.8789C132.023 36.3867 132.062 36.9336 132.062 37.5195C132.062 38.1836 132.004 38.8281 131.887 39.4531C131.783 40.0781 131.62 40.6836 131.398 41.2695C131.008 42.2591 130.448 43.0924 129.719 43.7695C128.99 44.4466 128.195 44.9154 127.336 45.1758C127.049 45.2539 126.763 45.306 126.477 45.332C126.19 45.3711 125.897 45.3906 125.598 45.3906C125.051 45.3906 124.471 45.319 123.859 45.1758C123.26 45.0456 122.648 44.8633 122.023 44.6289C121.75 44.5117 121.444 44.375 121.105 44.2188C120.767 44.0495 120.422 43.8672 120.07 43.6719C119.719 43.4766 119.367 43.2747 119.016 43.0664C118.677 42.8451 118.358 42.6302 118.059 42.4219C117.03 43.4375 115.923 44.2188 114.738 44.7656C113.566 45.3125 112.212 45.5859 110.676 45.5859C110.324 45.5859 109.999 45.5208 109.699 45.3906C109.4 45.2604 109.139 45.0846 108.918 44.8633C108.697 44.6289 108.521 44.362 108.391 44.0625C108.26 43.763 108.195 43.4375 108.195 43.0859ZM120.988 38.3008C121.418 38.6133 121.9 38.9062 122.434 39.1797C122.98 39.4401 123.514 39.668 124.035 39.8633C124.569 40.0586 125.064 40.2148 125.52 40.332C125.975 40.4362 126.333 40.4883 126.594 40.4883C126.763 40.4883 126.926 40.4688 127.082 40.4297C127.212 40.4036 127.342 40.3255 127.473 40.1953C127.616 40.0521 127.74 39.8633 127.844 39.6289C127.948 39.3945 128.033 39.1211 128.098 38.8086C128.163 38.4961 128.182 38.1445 128.156 37.7539C128.143 37.5977 128.091 37.3763 128 37.0898C127.922 36.7904 127.805 36.4714 127.648 36.1328C127.505 35.7943 127.323 35.4492 127.102 35.0977C126.88 34.7461 126.626 34.4336 126.34 34.1602C126.066 33.8737 125.754 33.6393 125.402 33.457C125.064 33.2747 124.693 33.1836 124.289 33.1836C123.924 33.1836 123.56 33.4701 123.195 34.043C122.844 34.6159 122.382 35.4688 121.809 36.6016L120.988 38.3008ZM138.273 45.5469C138.339 44.4792 138.397 43.3984 138.449 42.3047C138.501 41.2109 138.547 40.1367 138.586 39.082C138.625 38.0273 138.651 36.9987 138.664 35.9961C138.69 34.9935 138.703 34.0495 138.703 33.1641C138.703 31.3281 138.684 29.707 138.645 28.3008C138.605 26.8815 138.553 25.6315 138.488 24.5508C138.423 23.457 138.345 22.513 138.254 21.7188C138.176 20.9115 138.098 20.2018 138.02 19.5898C137.941 18.9779 137.863 18.4375 137.785 17.9688C137.707 17.5 137.642 17.0573 137.59 16.6406L142.609 14.9414C142.635 15.0195 142.655 15.1042 142.668 15.1953C142.694 15.2865 142.714 15.4232 142.727 15.6055C142.753 15.7747 142.779 16.0156 142.805 16.3281C142.844 16.6276 142.883 17.0378 142.922 17.5586C142.974 18.0794 143.033 18.7305 143.098 19.5117C143.176 20.2799 143.267 21.224 143.371 22.3438C143.436 23.4245 143.488 24.3945 143.527 25.2539C143.579 26.1003 143.618 26.9336 143.645 27.7539C143.671 28.5612 143.69 29.401 143.703 30.2734C143.716 31.1328 143.723 32.1094 143.723 33.2031C143.723 34.987 143.703 36.8164 143.664 38.6914C143.625 40.5664 143.534 42.5977 143.391 44.7852L138.273 45.5469ZM133.078 12.8516C133.078 12.6562 133.098 12.5195 133.137 12.4414C133.163 12.3633 133.208 12.2461 133.273 12.0898C133.326 11.9206 133.391 11.7448 133.469 11.5625C133.547 11.3802 133.632 11.1914 133.723 10.9961C133.814 10.7878 133.905 10.6055 133.996 10.4492C134.439 9.74609 134.953 9.1862 135.539 8.76953C136.138 8.35286 136.737 8.07943 137.336 7.94922C137.466 7.92318 137.616 7.91016 137.785 7.91016C137.967 7.89714 138.117 7.89062 138.234 7.89062C138.833 7.89062 139.374 7.96224 139.855 8.10547C140.337 8.2487 140.786 8.41146 141.203 8.59375H141.184C141.522 8.73698 141.854 8.89323 142.18 9.0625C142.518 9.23177 142.876 9.32292 143.254 9.33594C143.527 9.34896 143.807 9.26432 144.094 9.08203C144.38 8.89974 144.647 8.6849 144.895 8.4375C145.155 8.17708 145.376 7.92969 145.559 7.69531C145.754 7.44792 145.891 7.27214 145.969 7.16797L148.605 8.86719C148.592 8.90625 148.521 9.02344 148.391 9.21875C148.26 9.40104 148.078 9.62891 147.844 9.90234C147.622 10.1628 147.349 10.4492 147.023 10.7617C146.698 11.0612 146.333 11.3411 145.93 11.6016C145.539 11.849 145.109 12.0573 144.641 12.2266C144.172 12.3828 143.677 12.4544 143.156 12.4414C142.596 12.4284 142.082 12.3568 141.613 12.2266C141.145 12.0833 140.708 11.9401 140.305 11.7969L139.992 11.6797H140.012C139.634 11.5234 139.27 11.3542 138.918 11.1719C138.579 10.9896 138.228 10.9245 137.863 10.9766C137.512 11.0026 137.232 11.1393 137.023 11.3867C136.828 11.6211 136.672 11.8945 136.555 12.207C136.438 12.5065 136.346 12.806 136.281 13.1055C136.229 13.4049 136.177 13.6328 136.125 13.7891L133.078 12.8516Z" fill="#2F2E41"/>
<rect x="169" y="3" width="32" height="32" rx="8" fill="#FB5EA5"/>
<rect x="174" y="15" width="22" height="8" rx="4" fill="#D9D9D9"/>
<rect x="189" y="8" width="22" height="8" rx="4" transform="rotate(90 189 8)" fill="#D9D9D9"/>
<rect x="169" y="38" width="32" height="32" rx="8" fill="#924BBA"/>
<rect x="180.245" y="43.3046" width="22" height="8" rx="4" transform="rotate(46.0483 180.245 43.3046)" fill="#D9D9D9"/>
<rect x="195.364" y="48.5601" width="22" height="8" rx="4" transform="rotate(132.322 195.364 48.5601)" fill="#D9D9D9"/>
<rect x="204" y="38" width="32" height="32" rx="8" fill="#62D762"/>
<rect x="209" y="50" width="23" height="8" rx="4" fill="#D9D9D9"/>
<circle cx="220.5" cy="45.5" r="3.5" fill="#D9D9D9"/>
<circle cx="220.5" cy="62.5" r="3.5" fill="#D9D9D9"/>
<rect x="204" y="3" width="32" height="32" rx="8" fill="#4E4DD5"/>
<rect x="209" y="15" width="22" height="8" rx="4" fill="#D9D9D9"/>
</svg>
