<svg width="67" height="67" viewBox="0 0 67 67" fill="none" xmlns="http://www.w3.org/2000/svg">
<rect width="32" height="32" rx="8" fill="#FB5EA5"/>
<rect x="5" y="12" width="22" height="8" rx="4" fill="#D9D9D9"/>
<rect x="20" y="5" width="22" height="8" rx="4" transform="rotate(90 20 5)" fill="#D9D9D9"/>
<rect y="35" width="32" height="32" rx="8" fill="#924BBA"/>
<rect x="11.2451" y="40.3046" width="22" height="8" rx="4" transform="rotate(46.0483 11.2451 40.3046)" fill="#D9D9D9"/>
<rect x="26.3637" y="45.5601" width="22" height="8" rx="4" transform="rotate(132.322 26.3637 45.5601)" fill="#D9D9D9"/>
<rect x="35" y="35" width="32" height="32" rx="8" fill="#62D762"/>
<rect x="40" y="47" width="23" height="8" rx="4" fill="#D9D9D9"/>
<circle cx="51.5" cy="42.5" r="3.5" fill="#D9D9D9"/>
<circle cx="51.5" cy="59.5" r="3.5" fill="#D9D9D9"/>
<rect x="35" width="32" height="32" rx="8" fill="#4E4DD5"/>
<rect x="40" y="12" width="22" height="8" rx="4" fill="#D9D9D9"/>
</svg>
